<svg width="38" height="37" viewBox="0 0 38 37" fill="none" xmlns="http://www.w3.org/2000/svg">
<path d="M19 0.714844C21.5312 0.785156 23.6406 1.66406 25.3281 3.35156C27.0156 5.03906 27.8594 7.18359 27.8594 9.78516C27.8594 12.3164 27.0156 14.4258 25.3281 16.1133C23.6406 17.8008 21.5312 18.6445 19 18.6445C16.4688 18.6445 14.3594 17.8008 12.6719 16.1133C10.9844 14.4258 10.1406 12.3164 10.1406 9.78516C10.1406 7.18359 10.9844 5.03906 12.6719 3.35156C14.3594 1.66406 16.4688 0.785156 19 0.714844ZM19 23.2852C24.1328 23.3555 28.3867 24.2344 31.7617 25.9219C35.1367 27.6094 36.8945 29.7188 37.0352 32.25V36.7852H0.964844V32.25C1.10547 29.7188 2.86328 27.6094 6.23828 25.9219C9.61328 24.2344 13.8672 23.3555 19 23.2852Z" fill="white"/>
</svg>
