<svg width="46" height="46" viewBox="0 0 46 46" fill="none" xmlns="http://www.w3.org/2000/svg">
<path d="M23 30.6602C20.75 30.5898 18.8867 29.8164 17.4102 28.3398C15.9336 26.8633 15.1953 25 15.1953 22.75C15.1953 20.5 15.9336 18.6367 17.4102 17.1602C18.8867 15.6836 20.75 14.9453 23 14.9453C25.25 14.9453 27.1133 15.6836 28.5898 17.1602C30.0664 18.6367 30.8047 20.5 30.8047 22.75C30.8047 25 30.0664 26.8633 28.5898 28.3398C27.1133 29.8164 25.25 30.5898 23 30.6602ZM39.7695 24.9648C39.8398 24.2617 39.875 23.5234 39.875 22.75C39.875 21.9766 39.8398 21.2383 39.7695 20.5352L44.5156 16.8438C44.9375 16.4219 45.0078 15.9297 44.7266 15.3672L40.1914 7.5625C39.9102 7.07031 39.4531 6.92969 38.8203 7.14062L33.2305 9.35547C32.1055 8.44141 30.8398 7.70312 29.4336 7.14062L28.5898 1.23438C28.4492 0.601562 28.0977 0.285156 27.5352 0.285156H18.4648C17.9023 0.285156 17.5508 0.601562 17.4102 1.23438L16.5664 7.14062C15.1602 7.70312 13.8945 8.44141 12.7695 9.35547L7.17969 7.14062C6.54688 6.92969 6.08984 7.07031 5.80859 7.5625L1.27344 15.3672C0.992188 15.9297 1.0625 16.4219 1.48438 16.8438L6.23047 20.5352C6.16016 21.2383 6.125 21.9766 6.125 22.75C6.125 23.5234 6.16016 24.2617 6.23047 24.9648L1.48438 28.6562C1.0625 29.0781 0.992188 29.5703 1.27344 30.1328L5.80859 37.9375C6.08984 38.4297 6.54688 38.5703 7.17969 38.3594L12.7695 36.1445C13.8945 37.0586 15.1602 37.7969 16.5664 38.3594L17.4102 44.2656C17.5508 44.8984 17.9023 45.2148 18.4648 45.2148H27.5352C28.0977 45.2148 28.4492 44.8984 28.5898 44.2656L29.4336 38.3594C30.8398 37.7969 32.1055 37.0586 33.2305 36.1445L38.8203 38.3594C39.4531 38.5703 39.9102 38.4297 40.1914 37.9375L44.7266 30.1328C45.0078 29.5703 44.9375 29.0781 44.5156 28.6562L39.7695 24.9648Z" fill="white"/>
</svg>
